<svg width="432" height="115" viewBox="0 0 432 115" fill="none" xmlns="http://www.w3.org/2000/svg">
<path d="M151.44 97.248C144.912 97.248 138.96 95.712 133.584 92.64C128.272 89.504 124.08 85.28 121.008 79.968C117.936 74.656 116.4 68.832 116.4 62.496C116.4 56.096 117.872 50.24 120.816 44.928C123.824 39.552 127.984 35.328 133.296 32.256C138.608 29.12 144.656 27.552 151.44 27.552C156.88 27.552 161.552 28.416 165.456 30.144C169.424 31.808 172.944 34.464 176.016 38.112L166.512 46.368C162.48 42.144 157.456 40.032 151.44 40.032C147.216 40.032 143.504 41.056 140.304 43.104C137.104 45.088 134.64 47.808 132.912 51.264C131.184 54.656 130.32 58.4 130.32 62.496C130.32 66.592 131.184 70.336 132.912 73.728C134.704 77.12 137.2 79.808 140.4 81.792C143.664 83.776 147.44 84.768 151.728 84.768C158 84.768 163.12 82.592 167.088 78.24L176.88 86.592C174.192 89.856 170.672 92.448 166.32 94.368C162.032 96.288 157.072 97.248 151.44 97.248ZM181.403 25.92H194.363V52.992C197.051 47.616 202.075 44.928 209.435 44.928C213.019 44.928 216.251 45.792 219.131 47.52C222.011 49.184 224.283 51.584 225.947 54.72C227.611 57.792 228.443 61.376 228.443 65.472V96H215.483V68.64C215.483 64.48 214.523 61.376 212.603 59.328C210.683 57.28 208.059 56.256 204.731 56.256C201.787 56.256 199.323 57.312 197.339 59.424C195.355 61.472 194.363 64.544 194.363 68.64V96H181.403V25.92ZM258.436 97.248C253.956 97.248 249.828 96.096 246.052 93.792C242.276 91.424 239.268 88.256 237.028 84.288C234.852 80.32 233.764 75.968 233.764 71.232C233.764 66.496 234.852 62.144 237.028 58.176C239.268 54.144 242.276 50.944 246.052 48.576C249.828 46.208 253.956 45.024 258.436 45.024C262.532 45.024 265.828 45.792 268.324 47.328C270.884 48.864 272.868 51.072 274.276 53.952V46.08H287.14V96H274.564V87.84C273.092 90.848 271.076 93.184 268.516 94.848C266.02 96.448 262.66 97.248 258.436 97.248ZM246.724 71.136C246.724 73.696 247.3 76.096 248.452 78.336C249.668 80.512 251.3 82.272 253.348 83.616C255.46 84.896 257.86 85.536 260.548 85.536C263.3 85.536 265.732 84.896 267.844 83.616C270.02 82.336 271.684 80.608 272.836 78.432C273.988 76.256 274.564 73.856 274.564 71.232C274.564 68.608 273.988 66.208 272.836 64.032C271.684 61.792 270.02 60.032 267.844 58.752C265.732 57.408 263.3 56.736 260.548 56.736C257.86 56.736 255.46 57.408 253.348 58.752C251.236 60.032 249.604 61.76 248.452 63.936C247.3 66.112 246.724 68.512 246.724 71.136ZM313.752 96C308.696 96 304.888 94.752 302.328 92.256C299.768 89.76 298.488 85.856 298.488 80.544V57.12H291.48V46.08H298.488V36L311.448 34.656V46.08H322.008V57.12H311.448V79.872C311.448 82.944 312.792 84.48 315.48 84.48H320.856V96H313.752ZM324.42 63.264H351.876V75.84H324.42V63.264ZM357.653 46.08H370.613V96H357.653V46.08ZM356.309 34.272C356.309 32.16 357.045 30.368 358.517 28.896C360.053 27.424 361.909 26.688 364.085 26.688C366.325 26.688 368.181 27.424 369.653 28.896C371.125 30.368 371.861 32.16 371.861 34.272C371.861 36.448 371.125 38.272 369.653 39.744C368.181 41.216 366.325 41.952 364.085 41.952C361.909 41.952 360.053 41.216 358.517 39.744C357.045 38.208 356.309 36.384 356.309 34.272ZM402.95 97.248C397.894 97.248 393.35 96.096 389.318 93.792C385.286 91.424 382.118 88.256 379.814 84.288C377.51 80.256 376.358 75.872 376.358 71.136C376.358 66.4 377.51 62.016 379.814 57.984C382.118 53.952 385.286 50.784 389.318 48.48C393.35 46.112 397.894 44.928 402.95 44.928C408.006 44.928 412.55 46.112 416.582 48.48C420.614 50.784 423.782 53.952 426.086 57.984C428.39 62.016 429.542 66.4 429.542 71.136C429.542 75.872 428.39 80.256 426.086 84.288C423.782 88.256 420.614 91.424 416.582 93.792C412.55 96.096 408.006 97.248 402.95 97.248ZM389.318 71.136C389.318 73.76 389.862 76.16 390.95 78.336C392.102 80.512 393.702 82.24 395.75 83.52C397.862 84.8 400.262 85.44 402.95 85.44C405.638 85.44 408.006 84.8 410.054 83.52C412.166 82.24 413.766 80.512 414.854 78.336C416.006 76.16 416.582 73.76 416.582 71.136C416.582 68.512 416.006 66.112 414.854 63.936C413.702 61.76 412.102 60.032 410.054 58.752C408.006 57.408 405.638 56.736 402.95 56.736C400.262 56.736 397.894 57.408 395.846 58.752C393.798 60.032 392.198 61.76 391.046 63.936C389.894 66.112 389.318 68.512 389.318 71.136Z" fill="#141317"/>
<path d="M18.9063 63.6801L18.8954 63.6507L18.8841 63.6215L10.0676 40.8932C8.03367 35.6499 11.9021 30 17.5261 30H21.8449H75C79.4183 30 83 33.5817 83 38V39.5262V83.1499V90.0523L65.6193 79.961C64.7042 79.4297 63.6648 79.1499 62.6067 79.1499H30.2C26.8524 79.1499 23.8587 77.0655 22.6971 73.9259L18.9063 63.6801ZM86.0042 91.7965L86.0007 91.7945C86.0019 91.7952 86.0031 91.7959 86.0042 91.7965Z" fill="#141317" fill-opacity="0.3" stroke="#141317" stroke-width="8" stroke-linecap="round"/>
</svg>
